<?xml version="1.0" encoding="utf-8"?>
<!-- Generator: Adobe Illustrator 26.3.1, SVG Export Plug-In . SVG Version: 6.00 Build 0)  -->
<svg version="1.1" id="Ebene_1" xmlns="http://www.w3.org/2000/svg" xmlns:xlink="http://www.w3.org/1999/xlink" x="0px" y="0px"
	 viewBox="0 0 478.8 152.94" style="enable-background:new 0 0 478.8 152.94;" xml:space="preserve">
<style type="text/css">
	.st0{fill:#FFFFFF;}
	.st1{fill:#FF003B;}
	.st2{fill:#000336;}
	.st3{opacity:0;fill:#FFFFFF;}
</style>
<g>
	<g>
		<path class="st0" d="M212.46,66.18l-0.12-0.01c-2.64-0.25-5.31-0.29-7.94-0.12l-0.2,0.01L204.22,0H184.4l-0.05,117.43l19.82,0.01
			l0.01-32.91l0.17-0.01c1.4-0.1,2.76-0.15,4.05-0.15c6.72,0,11.89,1.64,15.38,4.86c3.46,3.2,5.14,7.72,5.14,13.82l-0.01,14.41
			l19.82,0.01l0.01-14.26c0.01-16.83-5.85-27.79-17.42-32.56l-0.19-0.08l0.1-0.18l19.49-33.62l-22.23-0.01L212.46,66.18z"/>
	</g>
	<g>
		<path class="st0" d="M359.57,57.21c1.77,0.8,3.09,1.69,3.93,2.64c0.84,0.96,1.52,2.25,2.01,3.84c0.68,2.22,0.9,3.56,0.96,4.29
			c0.09,1.27,0.14,2.79,0.14,4.51l-0.02,45l19.83,0.01l0.02-45.16c0-7.1-0.64-12.95-1.9-17.38c-1.39-4.89-4.65-9.1-9.67-12.49h0
			c-5.55-3.82-14.19-5.67-26.43-5.68l-29.95-0.01l-0.03,80.7l19.82,0.01L338.29,56L352.92,56C355.57,56,357.81,56.41,359.57,57.21z"
			/>
	</g>
	<g>
		<path class="st0" d="M122.61,152.82c15.24,0,26.69-3.6,34.03-10.71c7.37-7.15,11.12-17.75,11.12-31.49l0.03-73.89l-19.82-0.01
			l-0.02,61.5l-13.23-0.01c-5.92,0-9.91-1.28-11.86-3.78c-1.47-1.89-3.23-6.14-3.22-15.66l0.02-42.06L99.81,36.7L99.8,78.14
			c-0.01,15.61,2.71,25.84,8.3,31.26c5.56,5.39,15.33,8.01,29.86,8.01l9.6,0l-0.04,0.22c-1.88,10.45-10.06,15.68-25.02,15.97
			l-11.14,19.21l11.2,0C122.58,152.82,122.6,152.82,122.61,152.82z"/>
	</g>
	<g>
		<polygon class="st0" points="274.83,55.97 274.81,98.42 261.98,98.42 261.98,117.62 306.59,117.64 306.59,98.43 294.64,98.43 
			294.66,36.78 271.48,36.77 260.36,55.97 		"/>
	</g>
	<g>
		<path class="st0" d="M433.16,152.94c9.65,0,18-1.78,24.83-5.3l0.23-0.13c2.53-1.58,4.79-3.18,6.69-4.74
			c1.9-1.57,4.02-3.74,6.29-6.44c2.42-2.88,4.32-6.41,5.63-10.52c1.28-4.04,1.94-8.58,1.94-13.52l0.03-74.79l-20.14-0.01v3.81
			l-0.27-0.16c-5.94-3.46-12.44-5.22-19.32-5.22c-0.01,0-0.01,0-0.02,0c-10.59,0-20.56,4.28-28.07,12.04
			c-7.52,7.77-11.66,18.09-11.67,29.06c0,10.97,4.13,21.29,11.64,29.07c7.51,7.78,17.48,12.06,28.08,12.07c0.01,0,0.01,0,0.02,0
			c6.88,0,13.37-1.75,19.31-5.2l0.28-0.16l-0.01,1.03c0,7.98-2.96,13.51-9.05,16.92c-2.29,1.36-7.25,2.97-17.82,2.97
			c-0.01,0-0.02,0-0.03,0l-5.78,0l-11.12,19.19l18.3,0.01C433.13,152.94,433.14,152.94,433.16,152.94z M438.87,98.45
			c-11.05,0-20.04-9.6-20.04-21.41s8.99-21.41,20.04-21.41c11.05,0,20.04,9.6,20.04,21.41S449.92,98.45,438.87,98.45z"/>
	</g>
	<path class="st1" d="M74.49,75.89c5.05-12.21,10.26-30.87,15.46-55.45L90.05,20l0.45-0.01c2.06-0.03,5.46-0.06,9.19-0.09l1.61-0.02
		c3.14-0.03,6.4-0.06,9.22-0.09l0.11,0l10.85-19.48H62.69l6.39,11.06l-0.04,0.21C62.82,44.4,54.31,69.99,43.76,87.65l-0.49,0.81
		l-0.49-0.81c-7.82-13.09-14.54-30.5-19.98-51.77H0c4.03,16.91,8.09,30.36,12.07,39.99c6.59,15.98,17.04,30.79,31.06,44.01
		l0.13,0.12l0.13-0.12C57.43,106.67,67.89,91.87,74.49,75.89z"/>
</g>
</svg>
